# xmcd
# Copyright (C) 1995-1998 Ti Kan
#
# Track frame offsets:
#       150
#       19143
#       36304
#       49763
#       70084
#       86226
#       103905
#       118397
#       135329
#       150300
#       166511
#
# Disc length: 2438 seconds
#
# Revision: 0
# Processed by: cddbd v1.4PL0 Copyright (c) Steve Scherf et al.
# Submitted via: CD-Transfer v1.0
#
DISCID=8b09840b
DTITLE=Tracey - Special Friend
DYEAR=2002
DGENRE=
TTITLE0=Special Friend
TTITLE1=I Will Rise Again
TTITLE2=Where Are You Now
TTITLE3=Strong Enough
TTITLE4=Take Me To Your Paradise
TTITLE5=I've Found Love
TTITLE6=Far Away From Me
TTITLE7=Light In Your Eyes
TTITLE8=Let's Fly
TTITLE9=Let's Get Into Detail
TTITLE10=I Will Be Free
EXTD=
EXTT0=
EXTT1=
EXTT2=
EXTT3=
EXTT4=
EXTT5=
EXTT6=
EXTT7=
EXTT8=
EXTT9=
EXTT10=
PLAYORDER=
